{"title":"Arrow S03E03 Corto Maltese 720p HDTV X265","uid":11269265,"size":464371899,"categoryP":"video","categoryS":"hd___tv_shows","magnet":"?xt=urn:btih:64b6be58a88070650975d519bef200d9f8cf9b2b&amp;dn=Arrow+S03E03+Corto+Maltese+720p+HDTV+X265&amp;tr=udp%3A%2F%2Ftracker.openbittorrent.com%3A80&amp;tr=udp%3A%2F%2Fopen.demonii.com%3A1337&amp;tr=udp%3A%2F%2Ftracker.coppersurfer.tk%3A6969&amp;tr=udp%3A%2F%2Fexodus.desync.com%3A6969","seeders":1,"leechers":0,"uploader":"atm50","files":-1,"time":1414063382,"description":"Oliver decides it's time for Thea to come back to Starling City, so he packs for Corto Maltese, where Felicity has traced Thea's whereabouts. Lyla asks Diggle to go with Oliver because one of her field operatives, Mark Shaw, has gone dark in Corto Maltese and she'd like him to look into it. Feeling responsible for Thea's departure, Roy joins Oliver and Diggle on their journey. Shaw double-crosses Diggle, putting numerous A.R.G.U.S. agents, including Lyla, at risk. Meanwhile, Laurel meets Ted Grant, and Felicity adjusts to her new job.\n\nSource: Arrow S03E03 720p HDTV X264-DIMENSION\n\nFormat                         : MPEG-4\nFile size                      : 443 MiB\nDuration                       : 42mn 4s\nOverall bit rate               : 1 471 Kbps\n\nVideo\n\nFormat                         : HEVC [X265]\nBit rate                       : 1 213 Kbps\nMaximum bit rate               : 11.3 Mbps\nWidth                          : 1 280 pixels\nHeight                         : 720 pixels\nDisplay aspect ratio           : 16:9\nFrame rate                     : 23.976 fps\nStream size                    : 365 MiB (82%)\n\nAudio\n\nFormat                         : AC-3\nBit rate                       : 256 Kbps\nChannel(s)                     : 6 channels (5.1)\nSampling rate                  : 48.0 KHz\nBit depth                      : 16 bits\nCompression mode               : Lossy\nStream size                    : 77.0 MiB (17%)\n\nSubtitles: English (External)","torrent":{"xt":"urn:btih:64b6be58a88070650975d519bef200d9f8cf9b2b","amp;dn":"Arrow+S03E03+Corto+Maltese+720p+HDTV+X265","amp;tr":["udp%3A%2F%2Ftracker.openbittorrent.com%3A80","udp%3A%2F%2Fopen.demonii.com%3A1337","udp%3A%2F%2Ftracker.coppersurfer.tk%3A6969","udp%3A%2F%2Fexodus.desync.com%3A6969"],"infoHash":"64b6be58a88070650975d519bef200d9f8cf9b2b","infoHashBuffer":{"type":"Buffer","data":[100,182,190,88,168,128,112,101,9,117,213,25,190,242,0,217,248,207,155,43]},"announce":[],"urlList":[]}}